<svg xmlns="http://www.w3.org/2000/svg" viewBox="0 0 1024.68 122.56"><title>blockdos-logo</title><path d="M18.94,105.59H55.23q24.27,0,24.27-19.82c0-6.59-1.76-11.32-5.29-14.23s-9.29-4.37-17.32-4.37H18.94Zm0-53.6h38c6.92,0,11.93-1.2,15.07-3.58q6.29-4.71,6.29-14.06,0-8.48-5-13.27a13.37,13.37,0,0,0-5.88-3.42,46.22,46.22,0,0,0-10.5-.87H18.94ZM0,120.77V1.61H56.89C66,1.61,73,2.24,77.66,3.49a24.7,24.7,0,0,1,11.86,6.93q8.37,8.66,8.37,21.75,0,18.87-18.33,27.41,8.37,3,12.82,7.5,7.31,7.42,7.3,20,0,17.79-12.9,26.89-9.66,6.8-34.61,6.8Z" style="fill:#3795d2;fill-rule:evenodd"/><path d="M135.86,1.61h18.93V71a89.18,89.18,0,0,0,1.27,17.14,20.07,20.07,0,0,0,4.33,9.38q8.33,8.28,25.92,8.11H212v15.18H182.55q-13.89,0-22.12-2.62A34,34,0,0,1,146,109.08a31.79,31.79,0,0,1-7.85-13.82q-2.28-8.08-2.27-22Z" style="fill:#3795d2;fill-rule:evenodd"/><path d="M291.15,15.19q-24.7,0-33.1,17.17Q253,42.77,253,61.15q0,22.14,7.42,33.23,8.74,13,30.48,13,24.74,0,32.76-17.35Q328,80.51,328,62.11q0-22.5-6.47-32.8Q312.73,15.38,291.15,15.19ZM291.28,0Q325,0,338.43,20.32q9.78,14.92,9.77,41.27,0,32.34-16.31,47-15.6,14-42.31,14-30.52,0-44.48-17.36-5.58-6.9-8.95-18.8a91.72,91.72,0,0,1-3.36-24.9,85.81,85.81,0,0,1,3.54-24.91Q239.86,24.88,246,17.8A46.58,46.58,0,0,1,264.61,4.54Q275.67.19,291.28,0Z" style="fill:#3795d2;fill-rule:evenodd"/><path d="M474.2,105.59v15.18h-37q-15.89,0-25.21-2.62-18.58-5.24-27.38-24.62Q378.27,79.67,378.26,62q0-20.86,8.64-36.74,7.14-13.19,18-18.43t31.23-5.24h38V16.79h-37q-12.14,0-18.34,1.88a21.27,21.27,0,0,0-10.38,6.94q-4.72,5.59-7.38,15.41a81.88,81.88,0,0,0-2.67,21.52q0,22.08,10.3,33.7a24.4,24.4,0,0,0,11.17,7.39q6.39,2,18.87,2Z" style="fill:#3795d2;fill-rule:evenodd"/><path d="M526.81,60.15,584.47,1.61h23.21L547.31,59.1l63.86,61.67H585.61Zm0-58.54V120.77H507.87V1.61Z" style="fill:#3795d2;fill-rule:evenodd"/><path d="M661.61,16.79v88.8H692q20.24,0,28.34-11.8,7.41-10.73,7.4-31.16,0-23.13-8.53-35.09a22.65,22.65,0,0,0-10.69-8.26q-6.57-2.49-17.83-2.49ZM642.68,1.61h45.63q18.88,0,27.7,2.71,16.38,5.15,25.53,23.14,6.35,12.66,6.36,32.64,0,39.9-21.61,53.6a40.45,40.45,0,0,1-13.94,5.63q-7.3,1.44-22.3,1.44H642.68Z" style="fill:#3795d2;fill-rule:evenodd"/><path d="M836.27,15.19q-24.71,0-33.1,17.17-5.05,10.41-5.06,28.79,0,22.14,7.42,33.23,8.75,13,30.48,13,24.74,0,32.76-17.35,4.38-9.51,4.37-27.91,0-22.5-6.47-32.8Q857.85,15.38,836.27,15.19ZM836.39,0q33.71,0,47.16,20.32,9.78,14.92,9.77,41.27,0,32.34-16.31,47-15.6,14-42.31,14-30.51,0-44.48-17.36-5.58-6.9-9-18.8a91.71,91.71,0,0,1-3.35-24.9,85.81,85.81,0,0,1,3.53-24.91Q785,24.88,791.08,17.8A46.48,46.48,0,0,1,809.73,4.54Q820.8.19,836.39,0Z" style="fill:#3795d2;fill-rule:evenodd"/><path d="M928,120.77V105.59h51.49q11.91,0,17.08-3c5.26-3,7.9-8.17,7.9-15.46q0-13.89-10.25-17.22c-3-1-9.14-1.49-18.31-1.49H966q-20.58,0-29.49-5.67-12.74-8-12.75-25.38a35.74,35.74,0,0,1,5.85-20.24A30.19,30.19,0,0,1,944.3,5.06q9-3.45,25.62-3.45h49V16.79h-49a73.19,73.19,0,0,0-11.95.74,20.59,20.59,0,0,0-7.22,2.66c-4.55,2.93-6.83,7.74-6.83,14.51q0,8.89,6,12.73t20,3.84h7.15q15.3,0,22.8,1.4a27,27,0,0,1,21.53,17.11,41.83,41.83,0,0,1,3.28,16.78q0,21.1-16.51,29.68a37.62,37.62,0,0,1-11.66,3.57,146.42,146.42,0,0,1-19.44,1Z" style="fill:#3795d2;fill-rule:evenodd"/></svg>